<?xml version="1.0" encoding="utf-8"?>
<!-- Generator: Adobe Illustrator 27.0.0, SVG Export Plug-In . SVG Version: 6.00 Build 0)  -->
<svg version="1.1" xmlns="http://www.w3.org/2000/svg" xmlns:xlink="http://www.w3.org/1999/xlink" x="0px" y="0px"
	 viewBox="0 0 150 150" style="enable-background:new 0 0 150 150;" xml:space="preserve">
<style type="text/css">
	.st0{opacity:0.1;fill:#FFFFFF;}
	.st1{fill:#D3A752;}
	.st2{fill:#936C2A;}
	.st3{fill:#C58B37;}
	.st4{fill:#5D4A28;}
	.st5{fill:#7A6231;}
	.st6{opacity:0.7;fill:#FFFFFF;}
	.st7{opacity:0.5;fill:#2C2B2B;}
</style>
<g id="Capa_1">
</g>
<g id="Objects">
	<g>
		<path class="st0" d="M141.8,40.9c-1.9-3.6-4-7.1-6.4-10.3C121.7,12,99.8,0,75,0C33.5,0,0,33.6,0,75c0,8.2,1.3,16.1,3.7,23.4
			c0.9,2.7,1.9,5.4,3.1,7.9C18.7,132.1,44.7,150,75,150c41.4,0,75-33.6,75-75C150,62.7,147,51.1,141.8,40.9z"/>
		<path class="st1" d="M135.3,44.2c-1.7-3.3-3.6-6.4-5.8-9.3c-1.8-2.5-3.9-4.9-6-7.1c-2.1-2.1-4.2-4.1-6.6-5.9
			C105.4,12.7,90.8,7.2,75,7.2C37.5,7.2,7.2,37.6,7.2,75c0,7.4,1.2,14.5,3.4,21.2c0.8,2.5,1.8,4.8,2.8,7.2c1.3,2.9,2.9,5.7,4.6,8.3
			c2.3,3.5,4.8,6.8,7.7,9.8C38,134.6,55.5,142.8,75,142.8c37.4,0,67.8-30.3,67.8-67.8C142.7,63.9,140.1,53.4,135.3,44.2z"/>
		<path class="st2" d="M41.3,16.2c0,0,32.3,16.4,72,2.9C113.3,19.1,80.1-4.3,41.3,16.2z"/>
		<path class="st2" d="M26.9,29.3c0,0,34.7,35.3,103.2,7.1c0,0,7.3,8.2,9.9,19.2c0,0-66.8,27.3-125.3-11.7
			C14.7,44,21.6,34.2,26.9,29.3z"/>
		<path class="st3" d="M42.5,15.5c0,0,29.8,16.2,69.5,2.7C111.9,18.2,81.2-4.9,42.5,15.5z"/>
		<path class="st3" d="M26.4,27.8c0,0,34.7,35.3,103.2,7.1c0,0,7.3,8.2,9.9,19.2c0,0-65.7,27.9-124.2-11.1
			C15.2,42.9,21,32.7,26.4,27.8z"/>
		<path class="st4" d="M7.2,79c0,0,48.8,38.8,133.1,13.9c0,0-3,9.1-5,12.9c0,0-63.1,25.1-126.3-13.6C9,92.3,7.5,84.4,7.2,79z"/>
		<path class="st5" d="M7.2,77.5c0,0,49.2,38.7,133.6,13.8c0,0-2.5,8.8-4.5,12.7c0,0-64,25.4-127.2-13.2C9,90.7,7.5,82.8,7.2,77.5z"
			/>
		<path class="st3" d="M16.8,109.7c0,0,42.3,31.8,102.5,16.6c0,0-29.8,26.6-67.1,12.5C52.1,138.8,32.8,134.1,16.8,109.7z"/>
		<path class="st6" d="M38,35c2.2-1.6,4.5-3.2,6.7-4.8c5-3.5,10.6-7.3,16.7-6.6c2.7,0.3,5.5,1.9,6,4.5c0.3,1.5-0.4,3.1-1.1,4.5
			c-2.4,4.3-6.4,7.7-11,9.4c-1.6,0.6-3.2,0.9-4.7,1.6c-1.9,0.9-3.5,2.3-5.2,3.5c-3.7,2.7-13.7,9.3-17.3,3.3C24.6,44.4,34,37.9,38,35
			z"/>
		<path class="st3" d="M8.1,63.7c0,0,54.2,45.2,134.6,11.3c0,0,0.1,9.5-2,16.3c0,0-74.2,25.9-133.6-13.8C7.2,77.5,7.1,68.5,8.1,63.7
			z"/>
		<path class="st7" d="M135.3,44.2c-1.7-3.3-3.6-6.4-5.8-9.3c-1.8-2.5-3.9-4.9-6-7.1c1.2,1.9,2.4,3.9,3.4,5.9
			c4.7,9.2,7.4,19.7,7.4,30.8c0,37.4-30.3,67.8-67.8,67.8c-19.1,0-36.3-7.9-48.6-20.6C30,130.4,51,142.8,75,142.8
			c37.4,0,67.8-30.3,67.8-67.8C142.7,63.9,140.1,53.4,135.3,44.2z"/>
		<g>
			<path class="st2" d="M103.6,79.5c-0.8-2.5,0.2-5.2,2.2-6.4c-0.2,0-0.4,0.1-0.6,0.2c-2.4,1-3.6,4-2.7,6.7c0.9,2.7,3.6,4.1,5.9,3.1
				c0.2-0.1,0.4-0.2,0.5-0.3C106.7,83.3,104.4,82,103.6,79.5z"/>
			<path class="st3" d="M111.1,76.4c-0.8-2.5-3.1-3.8-5.4-3.3c-2,1.2-3,3.9-2.2,6.4c0.8,2.5,3.1,3.8,5.4,3.3
				C111,81.6,111.9,78.8,111.1,76.4z"/>
		</g>
		<g>
			<path class="st2" d="M111.9,68.4c0.5-1.1,1.6-1.6,2.6-1.3c-0.1-0.1-0.2-0.1-0.2-0.1c-1.1-0.6-2.3,0-2.8,1.2
				c-0.5,1.2,0,2.6,1.1,3.2c0.1,0,0.2,0.1,0.3,0.1C111.9,70.8,111.5,69.5,111.9,68.4z"/>
			<path class="st3" d="M115.3,70.2c0.5-1.1,0.1-2.4-0.8-3c-1-0.4-2.1,0.2-2.6,1.3c-0.5,1.1-0.1,2.4,0.8,3
				C113.8,71.8,114.9,71.3,115.3,70.2z"/>
		</g>
	</g>
</g>
</svg>
