<?xml version="1.0" encoding="utf-8"?>
<!-- Generator: Adobe Illustrator 27.0.0, SVG Export Plug-In . SVG Version: 6.00 Build 0)  -->
<svg version="1.1" xmlns="http://www.w3.org/2000/svg" xmlns:xlink="http://www.w3.org/1999/xlink" x="0px" y="0px"
	 viewBox="0 0 150 150" style="enable-background:new 0 0 150 150;" xml:space="preserve">
<style type="text/css">
	.st0{opacity:0.1;fill:#FFFFFF;}
	.st1{fill:#878785;}
	.st2{fill:#B5B5B2;}
	.st3{opacity:0.7;fill:#FFFFFF;}
	.st4{fill:#645F60;}
	.st5{fill:#827C7F;}
</style>
<g id="Capa_1">
</g>
<g id="Objects">
	<g>
		<path class="st0" d="M141.9,40.6c-1.8-3.6-4-7-6.4-10.3C122,12,100.1,0,75.5,0C34.4,0,1,33.4,1,74.5c0,8.1,1.3,16,3.7,23.3
			c0.9,2.7,1.9,5.3,3.1,7.9C19.6,131.2,45.5,149,75.5,149c41.1,0,74.5-33.4,74.5-74.5C150,62.3,147.1,50.8,141.9,40.6z"/>
		<path class="st1" d="M135.4,43.7c-1.7-3.3-3.6-6.4-5.8-9.3c-1.1-1.5-2.3-3-3.5-4.4c0.3,0.6,0.7,1.2,1,1.9
			c4.7,9.2,7.4,19.7,7.4,30.8c0,37.4-30.4,67.8-67.8,67.8c-20.4,0-38.7-9-51.1-23.3c11.5,20.9,33.8,35.1,59.4,35.1
			c37.4,0,67.8-30.4,67.8-67.8C142.8,63.4,140.2,52.9,135.4,43.7z"/>
		<path class="st2" d="M66.8,130.5c37.4,0,67.8-30.4,67.8-67.8c0-11.1-2.7-21.6-7.4-30.8c-0.3-0.6-0.7-1.3-1-1.9
			C113.7,15.7,95.4,6.7,75,6.7C37.6,6.7,7.2,37.1,7.2,74.5c0,7.4,1.2,14.5,3.4,21.2c0.8,2.5,1.8,4.8,2.8,7.2
			c0.7,1.5,1.4,2.9,2.2,4.4C28.1,121.5,46.4,130.5,66.8,130.5z"/>
		<path class="st3" d="M37.8,26.6c2.2-1.6,4.5-3.2,6.7-4.7c5-3.5,10.6-7.2,16.6-6.5c2.7,0.3,5.5,1.9,6,4.5c0.3,1.5-0.3,3.1-1.1,4.4
			c-2.4,4.3-6.4,7.7-11,9.3c-1.5,0.6-3.2,0.9-4.7,1.6c-1.9,0.9-3.5,2.2-5.2,3.4c-3.7,2.7-13.7,9.3-17.2,3.3
			C24.5,35.9,33.9,29.4,37.8,26.6z"/>
		<g>
			<path class="st4" d="M63.8,108.2c0-7.6,5.7-13.8,13-14.7c-0.6-0.1-1.3-0.1-1.9-0.1c-8.2,0-14.9,6.7-14.9,14.9
				c0,8.2,6.7,14.9,14.9,14.9c0.6,0,1.3-0.1,1.9-0.1C69.4,121.9,63.8,115.7,63.8,108.2z"/>
			<path class="st5" d="M89.7,108.2c0-7.6-5.7-13.8-13-14.7c-7.3,0.9-13,7.2-13,14.7c0,7.6,5.7,13.8,13,14.7
				C84,121.9,89.7,115.7,89.7,108.2z"/>
		</g>
		<g>
			<path class="st4" d="M83.4,26.4c0-4.3,3.2-7.8,7.3-8.3C90.4,18,90,18,89.7,18c-4.6,0-8.4,3.8-8.4,8.4s3.8,8.4,8.4,8.4
				c0.4,0,0.7,0,1.1-0.1C86.6,34.1,83.4,30.6,83.4,26.4z"/>
			<path class="st5" d="M98.1,26.4c0-4.3-3.2-7.8-7.3-8.3c-4.1,0.5-7.3,4-7.3,8.3s3.2,7.8,7.3,8.3C94.9,34.1,98.1,30.6,98.1,26.4z"
				/>
		</g>
		<g>
			<path class="st4" d="M102.2,44.4c0-2.7,2.1-5,4.7-5.4c-0.2,0-0.5,0-0.7,0c-3,0-5.4,2.4-5.4,5.4s2.4,5.4,5.4,5.4
				c0.2,0,0.5,0,0.7,0C104.3,49.4,102.2,47.1,102.2,44.4z"/>
			<path class="st5" d="M111.6,44.4c0-2.7-2.1-5-4.7-5.4c-2.7,0.3-4.7,2.6-4.7,5.4s2.1,5,4.7,5.4C109.6,49.4,111.6,47.1,111.6,44.4z
				"/>
		</g>
		<g>
			<path class="st4" d="M23.7,95.8c-1.7-4.8-0.1-9.7,3.6-11.7c-0.3,0.1-0.7,0.1-1,0.3c-4.3,1.5-6.4,6.9-4.6,12.1
				c1.8,5.2,6.8,8.2,11.1,6.6c0.3-0.1,0.7-0.3,1-0.4C29.7,103.5,25.4,100.6,23.7,95.8z"/>
			<path class="st5" d="M37.4,91.1c-1.7-4.8-6-7.7-10.1-6.9c-3.7,1.9-5.3,6.9-3.6,11.7c1.7,4.8,6,7.7,10.1,6.9
				C37.4,100.8,39,95.8,37.4,91.1z"/>
		</g>
		<g>
			<path class="st4" d="M30.1,76.3c-0.4-1.2,0.2-2.6,1.4-3.2c-0.1,0-0.2,0.1-0.3,0.1c-1.4,0.5-2.2,2-1.7,3.3c0.5,1.4,2,2.1,3.4,1.6
				c0.1,0,0.2-0.1,0.3-0.1C31.9,78.3,30.5,77.6,30.1,76.3z"/>
			<path class="st5" d="M34.5,74.8c-0.4-1.2-1.8-1.9-3.1-1.7c-1.2,0.6-1.8,2-1.4,3.2c0.4,1.2,1.8,1.9,3.1,1.7
				C34.4,77.4,35,76,34.5,74.8z"/>
		</g>
		<g>
			<path class="st4" d="M99,104.4c-0.5-2.1,0.7-4.2,2.6-4.9c-0.2,0-0.4,0-0.5,0.1c-2.3,0.5-3.7,2.8-3.1,5.1c0.5,2.3,2.8,3.7,5.1,3.1
				c0.2,0,0.3-0.1,0.5-0.2C101.4,107.9,99.5,106.5,99,104.4z"/>
			<path class="st5" d="M106.1,102.7c-0.5-2.1-2.5-3.4-4.5-3.2c-2,0.7-3.1,2.8-2.6,4.9c0.5,2.1,2.5,3.4,4.5,3.2
				C105.5,106.9,106.6,104.8,106.1,102.7z"/>
		</g>
		<g>
			<path class="st4" d="M82.2,50.1c-0.2-0.9,0.3-1.7,1.1-2c-0.1,0-0.1,0-0.2,0c-0.9,0.2-1.5,1.2-1.3,2.1c0.2,0.9,1.2,1.5,2.1,1.3
				c0.1,0,0.1,0,0.2-0.1C83.2,51.5,82.4,50.9,82.2,50.1z"/>
			<path class="st5" d="M85.1,49.4c-0.2-0.9-1-1.4-1.9-1.3c-0.8,0.3-1.3,1.2-1.1,2c0.2,0.9,1,1.4,1.9,1.3
				C84.9,51.1,85.3,50.2,85.1,49.4z"/>
		</g>
		<g>
			<path class="st4" d="M69.6,26c0.2-0.9,1-1.4,1.9-1.3c-0.1,0-0.1,0-0.2-0.1c-0.9-0.2-1.9,0.4-2.1,1.3c-0.2,0.9,0.4,1.9,1.3,2.1
				c0.1,0,0.1,0,0.2,0C69.9,27.7,69.4,26.9,69.6,26z"/>
			<path class="st5" d="M72.6,26.7c0.2-0.9-0.3-1.7-1.1-2c-0.9-0.1-1.7,0.5-1.9,1.3c-0.2,0.9,0.3,1.7,1.1,2
				C71.6,28.1,72.4,27.6,72.6,26.7z"/>
		</g>
		<g>
			<path class="st4" d="M110.1,27.7c0.2-0.9,1-1.4,1.9-1.3c-0.1,0-0.1,0-0.2-0.1c-0.9-0.2-1.9,0.4-2.1,1.3c-0.2,0.9,0.4,1.9,1.3,2.1
				c0.1,0,0.1,0,0.2,0C110.3,29.5,109.9,28.6,110.1,27.7z"/>
			<path class="st5" d="M113,28.4c0.2-0.9-0.3-1.7-1.1-2c-0.9-0.1-1.7,0.5-1.9,1.3c-0.2,0.9,0.3,1.7,1.1,2
				C112,29.9,112.8,29.3,113,28.4z"/>
		</g>
		<g>
			<path class="st4" d="M44.2,114.4c-0.2-0.9,0.3-1.7,1.1-2c-0.1,0-0.1,0-0.2,0c-0.9,0.2-1.5,1.2-1.3,2.1c0.2,0.9,1.2,1.5,2.1,1.3
				c0.1,0,0.1,0,0.2-0.1C45.2,115.8,44.4,115.3,44.2,114.4z"/>
			<path class="st5" d="M47.2,113.7c-0.2-0.9-1-1.4-1.9-1.3c-0.8,0.3-1.3,1.2-1.1,2c0.2,0.9,1,1.4,1.9,1.3
				C46.9,115.4,47.4,114.6,47.2,113.7z"/>
		</g>
	</g>
</g>
</svg>
