<?xml version="1.0" encoding="utf-8"?>
<!-- Generator: Adobe Illustrator 27.0.0, SVG Export Plug-In . SVG Version: 6.00 Build 0)  -->
<svg version="1.1" xmlns="http://www.w3.org/2000/svg" xmlns:xlink="http://www.w3.org/1999/xlink" x="0px" y="0px"
	 viewBox="0 0 150 150" style="enable-background:new 0 0 150 150;" xml:space="preserve">
<style type="text/css">
	.st0{opacity:0.1;fill:#FFFFFF;}
	.st1{fill:url(#SVGID_1_);}
	.st2{fill:#B0807C;}
	.st3{fill:#882A34;}
	.st4{opacity:0.7;fill:#FFFFFF;}
	.st5{opacity:0.5;fill:#2C2B2B;}
</style>
<g id="Capa_1">
</g>
<g id="Objects">
	<g>
		<path class="st0" d="M141.4,40.9c-1.9-3.6-4-7.1-6.4-10.3C121.4,12,99.4,0,74.6,0c-41.4,0-75,33.6-75,75c0,8.2,1.3,16.1,3.7,23.4
			c0.9,2.7,1.9,5.4,3.1,7.9C18.3,132.1,44.4,150,74.6,150c41.4,0,75-33.6,75-75C149.6,62.7,146.7,51.1,141.4,40.9z"/>
		<linearGradient id="SVGID_1_" gradientUnits="userSpaceOnUse" x1="26.6895" y1="27.0773" x2="122.5377" y2="122.9254">
			<stop  offset="0" style="stop-color:#D09890"/>
			<stop  offset="1" style="stop-color:#915E5B"/>
		</linearGradient>
		<path class="st1" d="M135,44.2c-1.7-3.3-3.6-6.4-5.8-9.3c-1.8-2.5-3.9-4.9-6-7.1C110.9,15.1,93.7,7.2,74.6,7.2
			C37.2,7.2,6.8,37.6,6.8,75c0,7.4,1.2,14.5,3.4,21.2c0.8,2.5,1.8,4.8,2.8,7.2c1.3,2.9,2.9,5.7,4.6,8.3c12.1,18.7,33.1,31.1,57,31.1
			c37.4,0,67.8-30.3,67.8-67.8C142.4,63.9,139.7,53.4,135,44.2z"/>
		<path class="st2" d="M18.2,111.9c-1-2,4.6-0.9,5-3.2c0.4-2.2-0.9-4.5-2.4-6.1c-1.3-1.4-3.1-2.9-2.8-4.7c0.4-3,4.9-2.8,7.8-1.7
			c3.6,1.4,7.2,2.8,10.8,4.1c3.2,1.2,6.8,2.9,7.5,6.2c0.4,1.7-0.2,3.5,0.1,5.3c0.4,3.4,3.6,5.8,6.7,7.4c10.9,5.6,24.2,6.5,35.8,2.4
			c-3.6-3.8-7.4-3.7-12.6-3.6c2.6-0.8,4-4.3,5.2-6.8c1.1-2.5,0-5.4-1.8-7.4c-1.9-2-4.3-3.2-6.7-4.5c-5.8-3.3-11.7-8.6-11.2-15.3
			c0.4-5.7,5.6-10.2,11.2-11c5.6-0.8,11.3,1.6,15.7,5.1c4.4,3.6,7.7,8.3,10.9,13c10.9,3.2,22.5-5.3,27.1-15.7
			c2.2-5,2.6-12.3-2.4-14.6c-2.5-1.2-5.5-0.6-8.3-0.9c-2.8-0.3-6-2.2-5.5-5c5-1.9,10-3.7,15-5.6c3.4-1.2,7.4-3.4,7.2-7
			c0-0.9-0.4-1.9-0.1-2.7c0.3-0.9,1.6-1.5,2.1-0.7c0,0,27,46.4-13.6,84.1C77.6,158.5,28.4,132.2,18.2,111.9z"/>
		<path class="st3" d="M19.7,114.2c-1-2,4.6-0.9,5-3.2c0.4-2.2-0.9-4.5-2.4-6.1c-1.3-1.4-3.1-2.9-2.8-4.7c0.4-3,4.9-2.8,7.8-1.7
			c3.6,1.4,7.2,2.8,10.8,4.1c3.2,1.2,6.8,2.9,7.5,6.2c0.4,1.7-0.2,3.5,0.1,5.3c0.4,3.4,3.6,5.8,6.7,7.4c10.9,5.6,24.2,6.5,35.8,2.4
			c-3.6-3.8-8.9-6-14.2-6c2.6-0.8,5.6-1.9,6.7-4.5c1.1-2.5,0-5.4-1.8-7.4c-1.9-2-4.3-3.2-6.7-4.5c-5.8-3.3-11.7-8.6-11.2-15.3
			c0.4-5.7,5.6-10.2,11.2-11c5.6-0.8,11.3,1.6,15.7,5.1c4.4,3.6,7.7,8.3,10.9,13c10.9,3.2,22.5-5.3,27.1-15.7
			c2.2-5,2.6-12.3-2.4-14.6c-2.5-1.2-5.5-0.6-8.3-0.9c-2.8-0.3-6-2.2-5.5-5c5-1.9,10-3.7,15-5.6c3.4-1.2,7.4-3.4,7.2-7
			c0-0.9-0.4-1.9-0.1-2.7c0.3-0.9,1.6-1.5,2.1-0.7c0,0,27,46.4-13.6,84.1C79.1,160.9,30,134.6,19.7,114.2z"/>
		<path class="st2" d="M91.6,68.3c0.4,0.4,0.7,1,1,1.6c0.5,0.9,1.2,1.7,2,2.3c1.1,0.8,2.5,1.4,3.8,1c1.4-0.5,2.2-2.2,2-3.7
			c-0.2-1.5-1.2-2.8-2.3-3.8c-1.1-1-2.4-1.8-3.5-2.8c-0.3-0.3-0.6-0.6-1-0.8c-1.6-0.8-4.3,0.8-4.8,2.4
			C87.8,66.8,90.4,67.2,91.6,68.3z"/>
		<path class="st3" d="M91.6,66.8c0.4,0.4,0.7,1,1,1.6c0.5,0.9,1.2,1.7,2,2.3c1.1,0.8,2.5,1.4,3.8,1c1.4-0.5,2.2-2.2,2-3.7
			c-0.2-1.5-1.2-2.8-2.3-3.8c-1.1-1-2.4-1.8-3.5-2.8c-0.3-0.3-0.6-0.6-1-0.8c-1.6-0.8-4.3,0.8-4.8,2.4
			C87.8,65.2,90.4,65.6,91.6,66.8z"/>
		<path class="st2" d="M43.7,94.7c0.6,0.3,1.2,0.5,1.9,0.5c2.1-0.1,3.4-2.5,3.5-4.6c0.1-2.1-0.4-4.3,0.3-6.4c1-2.7,3.8-4.1,6.4-5.4
			c2.6-1.3,5.3-3,5.9-5.8c0.5-2.3-0.8-4.8-2.8-6c-2-1.2-4.6-1.4-6.8-0.6c-2.7,0.9-5.1,2.9-8,3.2c-4,0.4-7.3-1.1-10.4,2.2
			c-1.9,2.1-2.9,5.1-1.7,7.8c1,2.4,3.4,4.3,4.8,6.6C38.8,89.5,39.8,92.9,43.7,94.7z"/>
		<path class="st3" d="M42.9,93.1c0.6,0.3,1.2,0.5,1.9,0.5c2.1-0.1,3.4-2.5,3.5-4.6c0.1-2.1-0.4-4.3,0.3-6.4c1-2.7,3.8-4.1,6.4-5.4
			c2.6-1.3,5.3-3,5.9-5.8c0.5-2.3-0.8-4.8-2.8-6c-2-1.2-4.6-1.4-6.8-0.6c-2.7,0.9-5.1,2.9-8,3.2c-4,0.4-7.3-1.1-10.4,2.2
			c-1.9,2.1-2.9,5.1-1.7,7.8c1,2.4,3.4,4.3,4.8,6.6C38,87.9,39,91.3,42.9,93.1z"/>
		<path class="st2" d="M7.4,83.3c4.6,1.3,11.8,1.2,14.9-2.5c3-3.5,3.8-8.3,5-12.8c1.2-4.5,3.2-9.2,7.4-11.2c2.3-1.1,4.9-1.2,7.5-1.2
			c7-0.1,13.9-0.2,20.9-0.4c1.8,0,3.9-0.1,5.2-1.4c2.2-2.1,1.1-5.7-0.1-8.5c-1.1-2.4-2.1-4.8-3.2-7.2c-0.8-1.8-1.6-3.6-1.6-5.6
			c0-3.3,2.5-6.2,5.5-7.7c3-1.5,6.4-1.7,9.7-1.8c4.6-0.1,9.1,0,13.6,0.4c3.6,0.3,7.5,0.9,10,3.6c0.8,0.9,1.4,1.9,2.1,2.9
			c3.2,4.7,8.3,8,13.8,9.2c1,0.2,2.1,0.3,3-0.3c0.9-0.6,1.2-1.8,1.4-2.9c0.6-2.8-1.2-7.2-0.7-10.1c0,0-15.6-16.7-42.2-17.2
			C52.9,8.3,32.7,20.2,18.4,42.5C6.3,61.9,7.4,83.3,7.4,83.3z"/>
		<path class="st3" d="M7.4,83.3c4.6,1.3,9.4-0.4,12.5-4c3-3.5,3.8-8.3,5-12.8c1.2-4.5,3.2-9.2,7.4-11.2c2.3-1.1,4.9-1.2,7.5-1.2
			c7-0.1,13.9-0.2,20.9-0.4c1.8,0,3.9-0.1,5.2-1.4c2.2-2.1,1.1-5.7-0.1-8.5c-1.1-2.4-2.1-4.8-3.2-7.2c-0.8-1.8-1.6-3.6-1.6-5.6
			c0-3.3,2.5-6.2,5.5-7.7c3-1.5,6.4-1.7,9.7-1.8c4.6-0.1,9.1,0,13.6,0.4c3.6,0.3,7.5,0.9,10,3.6c0.8,0.9,1.4,1.9,2.1,2.9
			c3.2,4.7,8.3,8,13.8,9.2c1,0.2,2.1,0.3,3-0.3c0.9-0.6,1.2-1.8,1.4-2.9c0.6-2.8,1.1-5.7,1.7-8.5c0,0-17.9-18.3-44.6-18.8
			C50.6,6.7,29,18.9,16,40.9C3.9,60.4,7.4,83.3,7.4,83.3z"/>
		<path class="st2" d="M77.4,35.5c1.3-1.7,3.7-2.1,5.8-2c3.2,0.1,6.4,0.7,9.5,1.7c1.9,0.6,3.8,1.3,5.1,2.7c1.4,1.4,2.2,3.5,1.5,5.4
			c-0.7,1.7-2.6,2.8-4.5,2.8c-2.1,0-4-1-6-1.9c-2-0.9-3.9-1.3-6-0.7c-1.4,0.4-2.8,1.7-4.3,1C76.2,43.4,76,37.3,77.4,35.5z"/>
		<path class="st3" d="M77.4,33.9c1.3-1.7,3.7-2.1,5.8-2c3.2,0.1,6.4,0.7,9.5,1.7c1.9,0.6,3.8,1.3,5.1,2.7c1.4,1.4,2.2,3.5,1.5,5.4
			c-0.7,1.7-2.6,2.8-4.5,2.8c-2.1,0-4-1-6-1.9c-2-0.9-3.9-1.3-6-0.7c-1.4,0.4-2.8,1.7-4.3,1C76.2,41.8,76,35.8,77.4,33.9z"/>
		<path class="st4" d="M34.1,31.8c2.2-1.6,4.5-3.2,6.7-4.8c5-3.5,10.6-7.3,16.7-6.6c2.7,0.3,5.5,1.9,6,4.5c0.3,1.5-0.4,3.1-1.1,4.5
			c-2.4,4.3-6.4,7.7-11,9.4c-1.6,0.6-3.2,0.9-4.7,1.6c-1.9,0.9-3.5,2.3-5.2,3.5c-3.7,2.7-13.7,9.3-17.3,3.3
			C20.7,41.2,30.1,34.6,34.1,31.8z"/>
		<path class="st5" d="M135.2,44.5c-1.7-3.3-3.6-6.4-5.8-9.3c-1.8-2.5-3.9-4.9-6-7.1c1.2,1.9,2.4,3.9,3.4,5.9
			c4.7,9.2,7.4,19.7,7.4,30.8c0,37.4-30.3,67.8-67.8,67.8c-19.1,0-36.3-7.9-48.6-20.6c12.1,18.7,33.1,31.1,57,31.1
			c37.4,0,67.8-30.3,67.8-67.8C142.6,64.2,140,53.7,135.2,44.5z"/>
	</g>
</g>
</svg>
