<?xml version="1.0" encoding="utf-8"?>
<!-- Generator: Adobe Illustrator 27.0.0, SVG Export Plug-In . SVG Version: 6.00 Build 0)  -->
<svg version="1.1" xmlns="http://www.w3.org/2000/svg" xmlns:xlink="http://www.w3.org/1999/xlink" x="0px" y="0px"
	 viewBox="0 0 150 150" style="enable-background:new 0 0 150 150;" xml:space="preserve">
<style type="text/css">
	.st0{opacity:0.1;fill:#FFFFFF;}
	.st1{fill:#968C55;}
	.st2{fill:#C8BB71;}
	.st3{opacity:0.7;fill:#FFFFFF;}
	.st4{fill:#797142;}
	.st5{fill:#E2D378;}
</style>
<g id="Capa_1">
</g>
<g id="Objects">
	<g>
		<path class="st0" d="M141.8,40.9c-1.9-3.6-4-7.1-6.4-10.3c-2.9-3.9-6.1-7.5-9.6-10.7C112.4,7.5,94.6,0,75,0C33.6,0,0,33.6,0,75
			c0,8.2,1.3,16.1,3.7,23.4c0.9,2.7,1.9,5.4,3.1,7.9c1.5,3.2,3.1,6.2,5,9.1C25.2,136.2,48.5,150,75,150c41.4,0,75-33.6,75-75
			C150,62.7,147,51.1,141.8,40.9z"/>
		<path class="st1" d="M135.4,44.2c-1.7-3.3-3.6-6.4-5.8-9.3c-2.6-3.5-5.5-6.8-8.7-9.7c1.2,1.9,2.3,3.8,3.4,5.8
			c4.7,9.2,7.4,19.7,7.4,30.8c0,37.4-30.3,67.8-67.8,67.8c-17.7,0-33.8-6.8-45.9-17.9C30,130.3,51,142.8,75,142.8
			c37.4,0,67.8-30.3,67.8-67.8C142.8,63.9,140.1,53.4,135.4,44.2z"/>
		<path class="st2" d="M131.6,61.7c0-11.1-2.7-21.6-7.4-30.8c-1-2-2.1-3.9-3.4-5.8C108.8,14,92.7,7.2,75,7.2
			C37.6,7.2,7.2,37.6,7.2,75c0,7.4,1.2,14.5,3.4,21.2c0.8,2.5,1.8,4.8,2.8,7.2c1.3,2.9,2.8,5.6,4.5,8.2
			c12.1,11.1,28.2,17.9,45.9,17.9C101.3,129.5,131.6,99.2,131.6,61.7z"/>
		<path class="st3" d="M39.3,28.5c2.2-1.6,4.5-3.2,6.7-4.8c5-3.5,10.6-7.3,16.7-6.6c2.7,0.3,5.5,1.9,6,4.5c0.3,1.5-0.3,3.1-1.1,4.5
			c-2.4,4.3-6.4,7.7-11,9.4c-1.6,0.6-3.2,0.9-4.7,1.6c-1.9,0.9-3.5,2.3-5.2,3.5C43,43.3,33,50,29.4,43.9
			C25.9,37.8,35.2,31.3,39.3,28.5z"/>
		<path class="st4" d="M65.3,110.6c0-7.6,5.7-13.9,13-14.8c-0.6-0.1-1.3-0.1-1.9-0.1c-8.3,0-15,6.7-15,15s6.7,15,15,15
			c0.7,0,1.3-0.1,1.9-0.1C71,124.5,65.3,118.2,65.3,110.6z"/>
		<path class="st5" d="M91.4,110.6c0-7.6-5.7-13.9-13-14.8c-7.4,0.9-13,7.2-13,14.8c0,7.6,5.7,13.9,13,14.8
			C85.7,124.5,91.4,118.2,91.4,110.6z"/>
		<path class="st4" d="M85.2,28.2c0-4.3,3.2-7.8,7.4-8.4c-0.4,0-0.7-0.1-1.1-0.1c-4.7,0-8.4,3.8-8.4,8.4s3.8,8.4,8.4,8.4
			c0.4,0,0.7,0,1.1-0.1C88.4,36.1,85.2,32.5,85.2,28.2z"/>
		<path class="st5" d="M99.9,28.2c0-4.3-3.2-7.8-7.4-8.4c-4.1,0.5-7.4,4.1-7.4,8.4s3.2,7.8,7.4,8.4C96.7,36.1,99.9,32.5,99.9,28.2z"
			/>
		<path class="st4" d="M104.1,46.4c0-2.8,2.1-5,4.7-5.4c-0.2,0-0.5,0-0.7,0c-3,0-5.4,2.4-5.4,5.4c0,3,2.4,5.4,5.4,5.4
			c0.2,0,0.5,0,0.7,0C106.1,51.4,104.1,49.1,104.1,46.4z"/>
		<path class="st5" d="M113.5,46.4c0-2.8-2.1-5-4.7-5.4c-2.7,0.3-4.7,2.6-4.7,5.4s2.1,5,4.7,5.4C111.5,51.4,113.5,49.1,113.5,46.4z"
			/>
		<path class="st4" d="M25,98.2c-1.7-4.8-0.1-9.8,3.6-11.8c-0.4,0.1-0.7,0.1-1,0.3c-4.4,1.5-6.4,7-4.6,12.2
			c1.8,5.2,6.8,8.2,11.2,6.7c0.3-0.1,0.7-0.3,1-0.4C31.1,105.9,26.7,103,25,98.2z"/>
		<path class="st5" d="M38.8,93.4c-1.7-4.8-6.1-7.7-10.2-7c-3.7,2-5.3,7-3.6,11.8c1.7,4.8,6.1,7.7,10.2,7
			C38.8,103.2,40.5,98.2,38.8,93.4z"/>
		<path class="st4" d="M31.5,78.5c-0.4-1.3,0.2-2.6,1.4-3.2c-0.1,0-0.2,0.1-0.3,0.1c-1.4,0.5-2.2,2-1.7,3.4c0.5,1.4,2,2.1,3.4,1.6
			c0.1,0,0.2-0.1,0.3-0.1C33.2,80.5,31.9,79.8,31.5,78.5z"/>
		<path class="st5" d="M35.9,77c-0.4-1.3-1.8-2-3.1-1.7c-1.2,0.6-1.8,2-1.4,3.2s1.8,2,3.1,1.7C35.8,79.6,36.4,78.2,35.9,77z"/>
		<path class="st4" d="M100.8,106.8c-0.5-2.1,0.7-4.2,2.6-4.9c-0.2,0-0.4,0-0.5,0.1c-2.3,0.5-3.7,2.8-3.2,5.1
			c0.5,2.3,2.8,3.7,5.1,3.2c0.2,0,0.4-0.1,0.5-0.2C103.3,110.3,101.3,108.9,100.8,106.8z"/>
		<path class="st5" d="M108,105.1c-0.5-2.1-2.5-3.5-4.6-3.2c-2,0.7-3.1,2.8-2.6,4.9c0.5,2.1,2.5,3.5,4.6,3.2
			C107.3,109.3,108.5,107.2,108,105.1z"/>
		<path class="st4" d="M83.9,52.1c-0.2-0.9,0.3-1.7,1.1-2c-0.1,0-0.1,0-0.2,0c-0.9,0.2-1.5,1.2-1.3,2.1c0.2,0.9,1.2,1.5,2.1,1.3
			c0.1,0,0.1,0,0.2-0.1C84.9,53.5,84.1,53,83.9,52.1z"/>
		<path class="st5" d="M86.9,51.4c-0.2-0.9-1-1.4-1.9-1.3c-0.8,0.3-1.3,1.2-1.1,2c0.2,0.9,1,1.4,1.9,1.3
			C86.6,53.1,87.1,52.3,86.9,51.4z"/>
		<path class="st4" d="M71.3,27.9c0.2-0.9,1-1.4,1.9-1.3c-0.1,0-0.1-0.1-0.2-0.1c-0.9-0.2-1.9,0.4-2.1,1.3c-0.2,0.9,0.4,1.9,1.3,2.1
			c0.1,0,0.1,0,0.2,0C71.5,29.6,71.1,28.7,71.3,27.9z"/>
		<path class="st5" d="M74.2,28.6c0.2-0.9-0.3-1.7-1.1-2c-0.9-0.1-1.7,0.5-1.9,1.3c-0.2,0.9,0.3,1.7,1.1,2
			C73.2,30,74,29.5,74.2,28.6z"/>
		<path class="st4" d="M112,29.6c0.2-0.9,1-1.4,1.9-1.3c-0.1,0-0.1-0.1-0.2-0.1c-0.9-0.2-1.9,0.4-2.1,1.3c-0.2,0.9,0.4,1.9,1.3,2.1
			c0.1,0,0.1,0,0.2,0C112.2,31.4,111.8,30.5,112,29.6z"/>
		<path class="st5" d="M114.9,30.3c0.2-0.9-0.3-1.7-1.1-2c-0.9-0.1-1.7,0.5-1.9,1.3c-0.2,0.9,0.3,1.7,1.1,2
			C113.9,31.8,114.7,31.2,114.9,30.3z"/>
		<path class="st4" d="M45.7,116.9c-0.2-0.9,0.3-1.7,1.1-2c-0.1,0-0.1,0-0.2,0c-0.9,0.2-1.5,1.2-1.3,2.1c0.2,0.9,1.2,1.5,2.1,1.3
			c0.1,0,0.1,0,0.2-0.1C46.7,118.3,45.9,117.7,45.7,116.9z"/>
		<path class="st5" d="M48.7,116.2c-0.2-0.9-1-1.4-1.9-1.3c-0.8,0.3-1.3,1.2-1.1,2c0.2,0.9,1,1.4,1.9,1.3
			C48.4,117.9,48.9,117,48.7,116.2z"/>
	</g>
</g>
</svg>
