<?xml version="1.0" encoding="utf-8"?>
<!-- Generator: Adobe Illustrator 27.0.0, SVG Export Plug-In . SVG Version: 6.00 Build 0)  -->
<svg version="1.1" xmlns="http://www.w3.org/2000/svg" xmlns:xlink="http://www.w3.org/1999/xlink" x="0px" y="0px"
	 viewBox="0 0 150 150" style="enable-background:new 0 0 150 150;" xml:space="preserve">
<style type="text/css">
	.st0{opacity:0.1;fill:#FFFFFF;}
	.st1{fill:#CFD4EC;}
	.st2{opacity:0.2;fill:#2C2B2B;}
	.st3{fill:#9796CA;}
	.st4{opacity:0.6;fill:#A1A6C6;}
	.st5{opacity:0.7;fill:#FFFFFF;}
</style>
<g id="Capa_1">
</g>
<g id="Objects">
	<g>
		<path class="st0" d="M141.8,40.9c-1.8-3.6-4-7-6.4-10.3C121.9,12.1,100,0.1,75.3,0.1C34,0.1,0.5,33.6,0.5,74.9
			c0,8.2,1.3,16,3.7,23.4c0.9,2.7,1.9,5.3,3.1,7.9c11.8,25.7,37.8,43.5,67.9,43.5c41.3,0,74.7-33.5,74.7-74.7
			C150,62.6,147.1,51.1,141.8,40.9z"/>
		<path class="st1" d="M135.4,44.2c-1.7-3.3-3.6-6.4-5.8-9.3c-1.8-2.5-3.8-4.9-6-7.1c-2-2.1-4.2-4.1-6.5-5.9
			C105.6,12.8,91.1,7.3,75.3,7.3C38,7.3,7.7,37.6,7.7,74.9c0,7.4,1.2,14.5,3.4,21.1c0.8,2.4,1.7,4.8,2.8,7.1
			c1.3,2.9,2.9,5.6,4.6,8.3c2.3,3.5,4.8,6.8,7.7,9.8c12.3,13.1,29.8,21.2,49.1,21.2c37.3,0,67.5-30.2,67.5-67.5
			C142.8,63.8,140.1,53.4,135.4,44.2z"/>
		<path class="st2" d="M20.6,114.8c7.7,9.8,22.5,6.7,33.8,12c-1.4-2-1.8-2.3-3.2-4.3c6.2,0.1,11.7-0.4,17.5,1.7
			c-2.9-1.7-4.8-2.2-7.2-4.6c11.6,3.6,22.8,4,35,4.2c-1.5,0-2.3,0.6-2.9-0.8c1.4-0.3,1.9-2.2,3.3-2.5c-8.6-3.7-16.7-5.3-25.8-7.9
			c5.4-1.4,9.5-4.5,14.9-5.9c-14.5-3.8-27.6-5.8-42.1-9.6c2.2,0.5,3.9,2.7,3.9,5c-12.5-1.2-23.6-2.1-35.9-4.6
			C11.9,97.5,15.1,107.8,20.6,114.8z"/>
		<path class="st3" d="M19.8,113.3c7.7,9.8,23.5,8.4,34.9,13.7c-1.4-2-2.8-4-4.3-6c6.2,0.1,12.4,1.2,18.3,3.3
			c-2.9-1.7-5.6-3.8-8-6.1c11.6,3.6,23.6,5.6,35.7,5.8c-1.5,0-3-1-3.6-2.4c1.4-0.3,2.7-0.6,4.1-0.9c-8.6-3.7-17.5-6.9-26.6-9.4
			c5.4-1.4,10.9-2.8,16.3-4.2c-14.5-3.8-29.1-7.6-43.6-11.4c2.2,0.5,3.9,2.7,3.9,5c-12.5-1.2-23.6-2.1-35.9-4.6
			C11.1,96,14.3,106.3,19.8,113.3z"/>
		<path class="st2" d="M103.5,14.8c3.9,1.8,6.1,4.5,9.1,7.7c-1.1-0.1-2.2,1.4-3.2,1.8c-1,0.5-1.7,1.7-1.3,2.7c0.3,0.7,1,1.1,1.6,1.6
			s0.8,1.5,0.3,2c-5.6-2.2-11.6-3.4-17.6-3.7c-0.8,0-1.6,0-2.2,0.3c-0.7,0.4-1.1,1.3-0.6,1.9c-3.4,0-6.9,0-10.3,0.2
			c0.5,0.9,1,0.2,1.5,1c-4.8-1.6-9.7-1.5-14.6-2.8c-1.9-0.5-3.9-1-5.7-0.5c0,0.4,0.2,0.7,0.5,0.9c-2.6-1.9-5.2-3.8-7.9-5.7
			c1.2-0.6,2.3-1.3,3.2-2.3c-3.5-1.9-7.4-4.8-11.4-5.5C44.7,14.5,71.6,0.5,103.5,14.8z"/>
		<path class="st3" d="M103.5,13.3c3.9,1.8,6.1,6.1,9.1,9.2c-1.1-0.1-2.2-0.2-3.2,0.3c-1,0.5-1.7,1.7-1.3,2.7c0.3,0.7,1,1.1,1.6,1.6
			s0.8,1.5,0.3,2c-5.6-2.2-11.6-3.4-17.6-3.7c-0.8,0-1.6,0-2.2,0.3c-0.7,0.4-1.1,1.3-0.6,1.9c-3.4,0-6.9,0-10.3,0.2
			c0.5,0.9,1,1.7,1.5,2.6c-4.8-1.6-9.7-3.1-14.6-4.4c-1.9-0.5-3.9-1-5.7-0.5c0,0.4,0.2,0.7,0.5,0.9c-2.6-1.9-5.2-3.8-7.9-5.7
			c1.2-0.6,2.3-1.3,3.2-2.3c-3.5-1.9-7.4-3.3-11.4-4C44.7,14.5,71.6-1,103.5,13.3z"/>
		<path class="st4" d="M135.4,44.2c-1.7-3.3-3.6-6.4-5.8-9.3c-1.8-2.5-3.8-4.9-6-7.1c1.2,1.9,2.4,3.8,3.4,5.9
			c4.7,9.2,7.4,19.7,7.4,30.7c0,37.3-30.2,67.5-67.5,67.5c-19,0-36.2-7.9-48.5-20.5c12,18.7,33,31,56.8,31
			c37.3,0,67.5-30.2,67.5-67.5C142.8,63.8,140.1,53.4,135.4,44.2z"/>
		<path class="st2" d="M136,104.3c4.2-8.7-16.4-10.9-24.8-15.6c1.2,2.1,2.1,5.6,4,7.2c-4-1.9-7.2-5.4-11.1-7.3
			c1.9,2.6,3.4,6.5,5.8,8.6C102,92.5,94.3,87,85.5,84.1c3.4,2.4,6,6.4,9.4,8.8c-15.6-5.4-30.9-11-47.2-13.5
			c7.5,3.5,14.2,8.5,21.7,11.9c-1.3,0-2.7,0-4,0c11.4,4.6,22.8,9.2,34.2,13.8c-0.5,0.4-1,0.7-1.6,0.9c0.2,0.9,0.7,1.8,1.4,2.4
			c-0.6,0.5-1.5,0.7-2.3,0.5c9.1,4.3,18.3,8.6,27.4,12.9C124.7,121.7,130,116.8,136,104.3z"/>
		<path class="st3" d="M136.8,102.7c4.2-8.7-17.1-9.4-25.6-14c1.2,2.1,2.9,4.1,4.8,5.6c-4-1.9-7.9-3.8-11.9-5.7
			c1.9,2.6,4.2,5,6.6,7.1c-7.9-4.8-16.4-8.7-25.2-11.7c3.4,2.4,6.8,4.8,10.2,7.3c-15.6-5.4-31.6-9.5-47.9-12
			c7.5,3.5,15,6.9,22.5,10.4c-1.3,0-2.7,0-4,0c11.4,4.6,22.8,9.2,34.2,13.8c-0.5,0.4-1,0.7-1.6,0.9c0.2,0.9,0.7,1.8,1.4,2.4
			c-0.6,0.5-1.5,0.7-2.3,0.5c9.1,4.3,18.3,8.6,27.4,12.9C125.5,120.1,130.8,115.3,136.8,102.7z"/>
		<path class="st2" d="M31,25.7c3.6-2.5,7.9,2.3,11.9,4.1c-4.2,0.4-8.5,1.9-12.8,1.5c12.6,5.7,25.1,11.5,37.5,17.6
			c-0.5,1.7-1.6,3.3-3,4.5c2.8,1,5.5,2.1,8.3,3.1c1.6,0.6,3.6,2.2,2.7,3.7c7.8,1.9,16,2.4,24,1.6c-2.1-2-4.2-3.9-6.3-5.9
			c-0.4-0.4-0.8-0.8-0.8-1.3c-0.2-1.1,1.3-1.7,2.4-2c2.2-0.5,4.4-0.9,6.6-1.4c-0.9-2.3-2.2-4.4-3.9-6.2c4.4,0.1,8.9,0.2,13.3,0.3
			c-0.4-0.9-0.9-1.8-1.3-2.8c8.1,1,16.8,1.6,25,1.5c3.9,6.3,5.8,12.6,5.8,12.6c-5.5-1.7-10.6-1.7-16.1-3.3c-3.2-1-6.5-2-9.8-1.6
			c0.6,1.4,1.3,1.3,1.9,2.8c-3.2-1.2-6.7-0.1-10.1,0.3c1.9,7.2,5.4,12.5,10.1,18.3c-8.7-2.6-17.7-2.7-26.8-3.3
			c0.5,1.6,1.5,1.4,2.9,2.4c-8.2-2.8-16.6-3.4-25.1-5c0.7,0.9,1.4,0.3,1.8,1.4c-4.4-0.9-8.1,0.4-12.6,0.7c0.2,0.5-0.2-0.5,0,0
			c0.3,0.1-30-9.7-45.9-13.1C10.5,56.1,17,35.3,31,25.7z"/>
		<path class="st3" d="M31,24.1c3.6-2.5,7.9,3.8,11.9,5.6c-4.2,0.4-8.5,0.4-12.8-0.1c12.6,5.7,25.1,11.5,37.5,17.6
			c-0.5,1.7-1.6,3.3-3,4.5c2.8,1,5.5,2.1,8.3,3.1c1.6,0.6,3.6,2.2,2.7,3.7c7.8,1.9,16,2.4,24,1.6c-2.1-2-4.2-3.9-6.3-5.9
			c-0.4-0.4-0.8-0.8-0.8-1.3c-0.2-1.1,1.3-1.7,2.4-2c2.2-0.5,4.4-0.9,6.6-1.4c-0.9-2.3-2.2-4.4-3.9-6.2c4.4,0.1,8.9,0.2,13.3,0.3
			c-0.4-0.9-0.9-1.8-1.3-2.8c8.1,1,16.8,1.6,25,1.5c3.9,6.3,5.8,14.2,5.8,14.2c-5.5-1.7-10.6-3.2-16.1-4.9c-3.2-1-6.5-2-9.8-1.6
			c0.6,1.4,1.3,2.9,1.9,4.3c-3.2-1.2-6.7-1.6-10.1-1.3c1.9,7.2,5.4,14.1,10.1,19.9c-8.7-2.6-17.7-4.3-26.8-4.9c0.5,1.6,1.5,3,2.9,4
			c-8.2-2.8-16.6-5-25.1-6.5c0.7,0.9,1.4,1.9,1.8,2.9c-4.4-0.9-8.8-1.2-13.2-0.9c0.2,0.5,0.4,1.1,0.7,1.6
			c-14.7-6.4-30.1-11.3-45.9-14.6C10.5,54.6,17,33.8,31,24.1z"/>
		<path class="st5" d="M38.4,28.5c2.2-1.6,4.5-3.2,6.7-4.7c5-3.5,10.6-7.2,16.7-6.5c2.7,0.3,5.5,1.9,6,4.5c0.3,1.5-0.3,3.1-1.1,4.4
			c-2.4,4.3-6.4,7.7-11,9.3c-1.6,0.6-3.2,0.9-4.7,1.6c-1.9,0.9-3.5,2.2-5.2,3.5c-3.7,2.7-13.7,9.3-17.2,3.3
			C25,37.8,34.4,31.3,38.4,28.5z"/>
	</g>
</g>
</svg>
