<?xml version="1.0" encoding="utf-8"?>
<!-- Generator: Adobe Illustrator 27.0.0, SVG Export Plug-In . SVG Version: 6.00 Build 0)  -->
<svg version="1.1" xmlns="http://www.w3.org/2000/svg" xmlns:xlink="http://www.w3.org/1999/xlink" x="0px" y="0px"
	 viewBox="0 0 282 174" style="enable-background:new 0 0 282 174;" xml:space="preserve">
<style type="text/css">
	.st0{fill:#EFE8E8;}
	.st1{fill:#AC9C8B;}
	.st2{fill:#D6C4AE;}
	.st3{opacity:0.1;fill:#FFFFFF;}
</style>
<g id="Capa_1">
</g>
<g id="Objects">
	<g>
		<path class="st0" d="M190.3,32.2c-2.9-2.7-6.1-5.2-9.4-7.4c-2.8-1.9-5.8-3.6-8.8-5c-2.9-1.4-5.9-2.6-8.9-3.6
			c-15.3-5.1-32.3-5.3-48.6,0.7c-38.4,14-58.3,56.5-44.3,94.9c2.8,7.6,6.6,14.5,11.4,20.5c1.7,2.2,3.6,4.3,5.6,6.3
			c2.4,2.5,5.1,4.8,7.8,6.8c3.6,2.8,7.5,5.2,11.6,7.2c17.6,8.8,38.6,10.7,58.6,3.5c38.4-14,58.3-56.5,44.3-94.9
			C205.2,49.7,198.6,39.9,190.3,32.2z"/>
		<path class="st1" d="M69,64.5c0,0,66.5,7.1,111.9-39.8c0,0-25.9-18.1-63.7-6.3C79.4,30.3,69,64.5,69,64.5z"/>
		<path class="st1" d="M66.9,96.5c0,0,66.4,11.9,135.2-49.1c0,0,15.2,22.4,10.5,52.2c0,0-58,52-122.7,41.5
			C89.9,141.1,69.5,124.4,66.9,96.5z"/>
		<path class="st2" d="M69,64.5c0,0,62.4,0.7,111.9-39.8c0,0-26.8-20.5-64.5-8.7C78.5,27.9,69,64.5,69,64.5z"/>
		<path class="st2" d="M66.1,94.1c0,0,66.4,11.9,135.2-49.1c0,0,16.7,21.1,12,50.9c0,0-61.4,52.9-126.1,42.5
			C87.1,138.4,68.7,122,66.1,94.1z"/>
		<path class="st2" d="M120.1,157.8c0,0,43.2-1.1,80.6-29.3c0,0-9.8,18.5-35.6,27.5C139.2,165,120.1,157.8,120.1,157.8z"/>
		<path class="st3" d="M201.6,32.5c-1.9-2.2-3.9-4.2-5.9-6.1c-3.3-3-6.7-5.8-10.4-8.2c-20.9-13.9-48-18.1-73.5-8.9
			c-33,12-53.5,42.9-54,76C29.9,100-2.4,120.7,3,135.6c3.6,9.9,20.2,12.6,50.7,8.1c7.3-1.1,15.1-2.5,23.4-4.4
			c1.4,1.6,2.8,3.2,4.3,4.7c21.8,22,55.2,30.7,86.3,19.4c33.1-12,53.8-43.2,54-76.5c7.7-4,14.8-8,21.3-12
			c26.3-16.2,37.3-28.8,33.7-38.8C271.3,21.1,232.6,25.8,201.6,32.5z M11.6,132.5c-1-2.8,4.1-15,46.6-37.4
			c0.7,6.4,2.2,12.9,4.5,19.3c2.2,6.1,5.1,11.8,8.5,17c-6.6,1.4-12.8,2.5-18.7,3.4C14.9,140.2,11.6,132.6,11.6,132.5z M238.2,67.2
			c-5.2,3.2-10.9,6.5-17.1,9.7c-0.7-6.2-2.2-12.4-4.4-18.5c-2.4-6.6-5.5-12.6-9.3-18.1c47.4-10.2,59.6-3.8,60.7-0.9
			C268.2,39.4,270.6,47.3,238.2,67.2z"/>
		<path class="st1" d="M150.6,115.5c-33.5,12.2-65.9,20.9-91.4,24.7c-28.6,4.2-44.2,1.7-47.6-7.6C6.4,118.1,39,97.8,65.7,84l0.3,9.2
			c-42.3,21.9-47.3,33.7-46.3,36.5c0,0.1,3.1,7.2,38.3,2c24.9-3.7,56.8-12.3,89.8-24.3c32.9-12,62.9-25.8,84.4-39
			c30.4-18.7,28.1-26.1,28.1-26.2c-1-2.7-13-9-60,1.6l-5.6-7.2c29.6-6.6,68.3-11.8,73.6,2.7c3.4,9.3-7,21.2-31.6,36.3
			C214.6,89.2,184.1,103.3,150.6,115.5z"/>
	</g>
</g>
</svg>
