<?xml version="1.0" encoding="utf-8"?>
<!-- Generator: Adobe Illustrator 27.0.0, SVG Export Plug-In . SVG Version: 6.00 Build 0)  -->
<svg version="1.1" xmlns="http://www.w3.org/2000/svg" xmlns:xlink="http://www.w3.org/1999/xlink" x="0px" y="0px"
	 viewBox="0 0 150 150" style="enable-background:new 0 0 150 150;" xml:space="preserve">
<style type="text/css">
	.st0{opacity:0.1;fill:#FFFFFF;}
	.st1{fill:url(#SVGID_1_);}
	.st2{fill:#7FA097;}
	.st3{fill:#A3CAC0;}
	.st4{fill:#EDEDDA;}
	.st5{opacity:0.5;fill:#2C2B2B;}
	.st6{opacity:0.7;fill:#FFFFFF;}
</style>
<g id="Capa_1">
</g>
<g id="Objects">
	<g>
		<path class="st0" d="M141.8,40.9c-1.9-3.6-4-7.1-6.4-10.3C121.8,12,99.8,0,75,0C33.6,0,0,33.6,0,75c0,8.2,1.3,16.1,3.7,23.4
			c0.9,2.7,1.9,5.4,3.1,7.9C18.7,132.1,44.8,150,75,150c41.4,0,75-33.6,75-75C150,62.7,147,51.1,141.8,40.9z"/>
		<linearGradient id="SVGID_1_" gradientUnits="userSpaceOnUse" x1="27.0747" y1="27.0773" x2="161.1594" y2="161.162">
			<stop  offset="0" style="stop-color:#CFE8E5"/>
			<stop  offset="0.296" style="stop-color:#C7E0DC"/>
			<stop  offset="0.7694" style="stop-color:#B0C8C3"/>
			<stop  offset="1" style="stop-color:#A3BAB5"/>
		</linearGradient>
		<path class="st1" d="M135.4,44.2c-1.7-3.3-3.6-6.4-5.8-9.3c-1.8-2.5-3.9-4.9-6-7.1c-2.1-2.1-4.2-4.1-6.6-5.9
			C105.5,12.7,90.9,7.2,75,7.2C37.6,7.2,7.2,37.6,7.2,75c0,7.4,1.2,14.5,3.4,21.2c0.8,2.5,1.8,4.8,2.8,7.2c1.3,2.9,2.9,5.7,4.6,8.3
			c2.3,3.5,4.8,6.8,7.7,9.8c12.4,13.1,29.9,21.3,49.3,21.3c37.4,0,67.8-30.3,67.8-67.8C142.8,63.9,140.1,53.4,135.4,44.2z"/>
		<path class="st2" d="M99.2,22.7C94.7,24.9,96.1,37,91,36.6c-5.1-0.4-26.5-9.4-28.9,0c-2.3,9.4,10.5,16.8,5.1,19.1
			C61.8,58.1,80.5,78,93,73.3c12.5-4.7,15.2,6.5,18.3,10.3c3.1,3.8,14.1,0.2,10.9-6.2c-3.1-6.4-9.8-28.9-2.3-31.9
			c7.4-3,0.4-19.5-5.9-16.9C107.8,31.1,108.6,18.2,99.2,22.7z"/>
		<path class="st2" d="M11.6,77.7c0.2,0.3,0.4,0.7,0.7,0.7c0.4,0,0.6-0.3,0.8-0.6c2.3-2.9,6.1-4.2,9.7-5.3c1.4-0.4,2.8-0.8,4.2-0.5
			c1.4,0.4,2.6,1.8,2.1,3.1c-0.2,0.5-0.6,1-0.9,1.4c-2.6,3.4-1.8,8.3-0.2,12.2c1.6,4,3.9,7.8,3.9,12.1c2.1-0.9,1.9-3.9,1.5-6.1
			c-1.1-6-1.2-12.2-0.2-18.2c0.2-1.2,0.5-2.5,1.2-3.5c1.8-2.4,5.7-2.1,8.2-0.3c2.4,1.8,3.9,4.6,5.7,7c4.8,6.4,12.2,10.4,19.3,14.1
			c2.4,1.3,4.9,2.6,7.6,3.1c1.9,0.3,3.8,0.2,5.8,0.1c5.4-0.3,10.8-0.6,16-1.7c2.5-0.5,4.9-1.2,7.4-1.5c5.1-0.5,10.5,0.9,14.6,4
			c2.6,2,4.8,4.5,7.7,6.2c0.6,0.4,1.3,0.7,2.1,0.6c1.7-0.2,2.4-2.4,2.3-4.2c-0.4-4.1-3.1-7.8-6.9-9.4c-4.2-1.8-9.2-0.9-13.5-2.6
			c-3.7-1.5-6.3-4.7-9.7-6.8c-5.7-3.5-13.4-3.3-18.9,0.5c-1.6,1.1-3,2.4-4.6,3.4c-1.7,1-3.7,1.5-5.5,0.8c0-3.4,3.1-6.6,2.3-9.9
			c-0.3-1.3-1.2-2.5-2.1-3.5c-8.6-9.3-21.8-12.5-32.4-19.3c-2.1-1.3-4.2-2.8-6.6-3.1c-3.8-0.4-7.1,2.3-10,4.8
			c-1.9,1.6-4.1,3.4-6.6,4c-3.1,0.8-3.8-0.6-5.2,2.7C9.2,67,9.4,72.9,11.6,77.7z"/>
		<path class="st2" d="M59.4,119.4c1.2,3.1-0.2,6.9-3,8.6c-1,0.6-2.4,1.3-2.3,2.5c0.1,0.8,0.9,1.3,1.6,1.7c6.4,3.2,13.7,4,20.8,4.6
			c9.1,0.7,18.8,0.9,26.9-3.4c2.3-1.2,4.3-2.8,6.4-4.3c6.2-4.7,12.7-9.6,16.2-16.6c0.3-0.7,0.6-1.4,0.7-2.1c0-1.6-1.2-2.9-2.4-4
			c-4.1-3.8-8.9-7.4-14.5-7.8c-2.1-0.2-4.5,0.3-5.7,2c-0.8,1.2-0.9,2.7-1.2,4.1c-0.7,3.2-2.9,6.1-5.7,7.8c-3.8,2.2-8.5,2.3-12.6,3.7
			c-1.4,0.5-2.8,1.1-4.3,1.2c-1.4,0.1-2.8-0.2-4.1-0.6c-5-1.2-9.8-2.6-14.6-4.2C55.7,110.4,58.2,116.4,59.4,119.4z"/>
		<path class="st3" d="M99.2,21.9c-4.5,2.2-3.1,14.3-8.2,13.9c-5.1-0.4-26.5-9.4-28.9,0c-2.3,9.4,10.5,16.8,5.1,19.1
			C61.8,57.3,80.5,77.2,93,72.5c12.5-4.7,15.2,6.5,18.3,10.3c3.1,3.8,14.1,0.2,10.9-6.2c-3.1-6.4-9.8-28.9-2.3-31.9
			c7.4-3,0.4-19.5-5.9-16.9C107.8,30.3,108.6,17.5,99.2,21.9z"/>
		<path class="st4" d="M92.5,26.8c0,1-0.1,2-0.7,2.8c-1.1,1.5-3.4,1.6-5.2,1.3c-6.9-1.1-13.1-5-20.1-5.6c-2.4-0.2-5.1,0.1-6.7,1.9
			c-1.2,1.3-1.6,3.1-1.9,4.8c-0.6,4.4-0.1,9,1.3,13.2c1,3,2.1,7.3-0.8,8.7c-1.5,0.7-3.4,0.1-4.9-0.8c-4.8-2.8-8.7-7.3-14-9
			c-5.1-1.6-11.2-0.1-14.9,3.7c-1.5,1.5-3.2,3.6-5.3,3.1c-1.9-1.7-0.3-5,1.8-6.4c2.1-1.4,4.9-2.2,6.2-4.4c0.7-1.2,1-2.6,1.4-3.9
			c1.3-4,4.7-7.3,8.8-8.5c2.9-0.8,6.8-1.3,7.3-4.3c0.2-1-0.2-2,0.1-2.9c0.4-1.8,2.5-2.7,4.2-3.4c3.4-1.2,6.8-2.3,10.2-3.5
			c3.6-1.2,7.3-2.5,11.1-2.7C78,10.8,92.3,18.1,92.5,26.8z"/>
		<path class="st3" d="M11.6,76.9c0.2,0.3,0.4,0.7,0.7,0.7c0.4,0,0.6-0.3,0.8-0.6c2.3-2.9,6.1-4.2,9.7-5.3c1.4-0.4,2.8-0.8,4.2-0.5
			c1.4,0.4,2.6,1.8,2.1,3.1c-0.2,0.5-0.6,1-0.9,1.4c-2.6,3.4-1.8,8.3-0.2,12.2c1.6,4,3.9,7.8,3.9,12.1c2.1-0.9,1.9-3.9,1.5-6.1
			c-1.1-6-1.2-12.2-0.2-18.2c0.2-1.2,0.5-2.5,1.2-3.5c1.8-2.4,5.7-2.1,8.2-0.3c2.4,1.8,3.9,4.6,5.7,7c4.8,6.4,12.2,10.4,19.3,14.1
			c2.4,1.3,4.9,2.6,7.6,3.1c1.9,0.3,3.8,0.2,5.8,0.1c5.4-0.3,10.8-0.6,16-1.7c2.5-0.5,4.9-1.2,7.4-1.5c5.1-0.5,10.5,0.9,14.6,4
			c2.6,2,4.8,4.5,7.7,6.2c0.6,0.4,1.3,0.7,2.1,0.6c1.7-0.2,2.4-2.4,2.3-4.2c-0.4-4.1-3.1-7.8-6.9-9.4c-4.2-1.8-9.2-0.9-13.5-2.6
			c-3.7-1.5-6.3-4.7-9.7-6.8c-5.7-3.5-13.4-3.3-18.9,0.5c-1.6,1.1-3,2.4-4.6,3.4c-1.7,1-3.7,1.5-5.5,0.8c0-3.4,3.1-6.6,2.3-9.9
			c-0.3-1.3-1.2-2.5-2.1-3.5C63.7,63,50.5,59.9,39.8,53c-2.1-1.3-4.2-2.8-6.6-3.1c-3.8-0.4-7.1,2.3-10,4.8c-1.9,1.6-4.1,3.4-6.6,4
			c-3.1,0.8-3.8-0.6-5.2,2.7C9.2,66.2,9.4,72.2,11.6,76.9z"/>
		<path class="st4" d="M21.6,78.5c0-0.4,0.1-0.8-0.2-1.1c-0.3-0.4-0.8-0.5-1.3-0.5c-2.6-0.1-5,1.3-7.2,2.5c-0.9,0.5-1.8,1-2.4,1.9
			c-1.1,1.5-0.9,3.5-0.4,5.3c1.2,4.6,3.6,8.9,6,13c2.4,4.2,4.8,8.3,7.2,12.5c1.5,2.5,3.1,5.2,5.9,6.2c2.5,0.9,5.3,0.1,8,0.1
			c4.7,0.1,8.9,3,12.8,5.8c2.2-3.3-1.9-7.5-1.2-11.4c0.6-3.5,4.6-5.2,8.1-5.7c9.1-1.2,18.5,1.4,27.6,0c1.6-0.3,3.7-1.2,3.4-2.8
			c-0.1-0.8-0.8-1.4-1.4-1.8c-3.9-2.6-9.1-2.1-13.7-2.9c-5.8-1-11.1-4.2-15.7-7.9c-4.6-3.8-8.6-8.1-13-12.1
			c-1.1-1.1-2.5-2.1-4.1-2.1c-1.5,0.1-2.7,1.2-3.3,2.6c-0.6,1.3-0.7,2.8-0.7,4.3c-0.1,4.5,0.1,8.9,0.7,13.3c0.1,0.9,0.2,1.7,0.1,2.6
			c-1.1,7-9.2,2.9-10.5-1.5C24.3,91.9,21,85.7,21.6,78.5z"/>
		<path class="st3" d="M59.4,118.7c1.2,3.1-0.2,6.9-3,8.6c-1,0.6-2.4,1.3-2.3,2.5c0.1,0.8,0.9,1.3,1.6,1.7c6.4,3.2,13.7,4,20.8,4.6
			c9.1,0.7,18.8,0.9,26.9-3.4c2.3-1.2,4.3-2.8,6.4-4.3c6.2-4.7,12.7-9.6,16.2-16.6c0.3-0.7,0.6-1.4,0.7-2.1c0-1.6-1.2-2.9-2.4-4
			c-4.1-3.8-8.9-7.4-14.5-7.8c-2.1-0.2-4.5,0.3-5.7,2c-0.8,1.2-0.9,2.7-1.2,4.1c-0.7,3.2-2.9,6.1-5.7,7.8c-3.8,2.2-8.5,2.3-12.6,3.7
			c-1.4,0.5-2.8,1.1-4.3,1.2c-1.4,0.1-2.8-0.2-4.1-0.6c-5-1.2-9.8-2.6-14.6-4.2C55.7,109.7,58.2,115.6,59.4,118.7z"/>
		<path class="st4" d="M121.4,53.8c0.7,6.4,4.5,12,5.6,18.4c0.4,2,0.5,4,1,5.9c1,3.4,3.4,6.4,6.5,8.1c1.2,0.6,2.8,1,3.7-0.1
			c0.4-0.5,0.5-1.3,0.5-2c0.4-10-0.8-20-3.3-29.7c-0.9-3.5-3.2-8.4-7.4-8.9C123.2,44.9,120.9,49.9,121.4,53.8z"/>
		<path class="st5" d="M135.4,44.2c-1.7-3.3-3.6-6.4-5.8-9.3c-1.8-2.5-3.9-4.9-6-7.1c1.2,1.9,2.4,3.9,3.4,5.9
			c4.7,9.2,7.4,19.7,7.4,30.8c0,37.4-30.3,67.8-67.8,67.8c-19.1,0-36.3-7.9-48.6-20.6c12.1,18.7,33.1,31.1,57,31.1
			c37.4,0,67.8-30.3,67.8-67.8C142.8,63.9,140.1,53.4,135.4,44.2z"/>
		<path class="st6" d="M36.2,32.5c2.2-1.6,4.5-3.2,6.7-4.8c5-3.5,10.6-7.3,16.7-6.6c2.7,0.3,5.5,1.9,6,4.5c0.3,1.5-0.4,3.1-1.1,4.5
			c-2.4,4.3-6.4,7.7-11,9.4c-1.6,0.6-3.2,0.9-4.7,1.6c-1.9,0.9-3.5,2.3-5.2,3.5C39.9,47.4,29.9,54,26.3,48
			C22.8,41.9,32.2,35.4,36.2,32.5z"/>
	</g>
</g>
</svg>
