<?xml version="1.0" encoding="utf-8"?>
<!-- Generator: Adobe Illustrator 27.0.0, SVG Export Plug-In . SVG Version: 6.00 Build 0)  -->
<svg version="1.1" xmlns="http://www.w3.org/2000/svg" xmlns:xlink="http://www.w3.org/1999/xlink" x="0px" y="0px"
	 viewBox="0 0 150 150" style="enable-background:new 0 0 150 150;" xml:space="preserve">
<style type="text/css">
	.st0{opacity:0.1;fill:#FFFFFF;}
	.st1{fill:url(#SVGID_1_);}
	.st2{fill:url(#SVGID_00000099627130957547568660000004986266864590422915_);}
	.st3{fill:#8D514D;}
	.st4{opacity:0.7;fill:#FFFFFF;}
	.st5{opacity:0.5;fill:#734040;}
</style>
<g id="Capa_1">
</g>
<g id="Objects">
	<g>
		<path class="st0" d="M141,41.7c-1.8-3.6-3.9-7-6.3-10.2c-13.4-18.2-35-30.1-59.4-30.1c-40.7,0-73.7,33-73.7,73.7
			c0,8,1.3,15.8,3.7,23c0.9,2.7,1.9,5.3,3.1,7.8c11.7,25.3,37.3,42.9,67,42.9c40.7,0,73.7-33,73.7-73.7
			C149,63.2,146.1,51.8,141,41.7z"/>
		<linearGradient id="SVGID_1_" gradientUnits="userSpaceOnUse" x1="27.2488" y1="26.1864" x2="137.5587" y2="136.4963">
			<stop  offset="0" style="stop-color:#DB8079"/>
			<stop  offset="0.2091" style="stop-color:#D57E77"/>
			<stop  offset="0.4734" style="stop-color:#C57670"/>
			<stop  offset="0.7661" style="stop-color:#AB6A65"/>
			<stop  offset="1" style="stop-color:#915E5B"/>
		</linearGradient>
		<path class="st1" d="M67,131.5c36.8,0,66.6-29.8,66.6-66.6c0-10.9-2.6-21.2-7.3-30.3c-1-2-2.2-3.9-3.4-5.8
			C110.9,16.4,94,8.6,75.3,8.6C38.5,8.6,8.6,38.5,8.6,75.3c0,7.3,1.2,14.3,3.3,20.8c0.8,2.4,1.7,4.8,2.8,7c1.3,2.8,2.8,5.6,4.5,8.2
			C31.3,123.8,48.3,131.5,67,131.5z"/>
		
			<linearGradient id="SVGID_00000111882197662866963060000006796589408080764817_" gradientUnits="userSpaceOnUse" x1="16.2384" y1="16.241" x2="138.6306" y2="138.6332">
			<stop  offset="0" style="stop-color:#DB8079"/>
			<stop  offset="0.2091" style="stop-color:#D57E77"/>
			<stop  offset="0.4734" style="stop-color:#C57670"/>
			<stop  offset="0.7661" style="stop-color:#AB6A65"/>
			<stop  offset="1" style="stop-color:#915E5B"/>
		</linearGradient>
		<path style="fill:url(#SVGID_00000111882197662866963060000006796589408080764817_);" d="M134.6,45c-1.6-3.2-3.6-6.3-5.7-9.2
			c-1.8-2.5-3.8-4.8-5.9-7C110.9,16.4,94,8.6,75.3,8.6C38.5,8.6,8.6,38.5,8.6,75.3c0,7.3,1.2,14.3,3.3,20.8c0.8,2.4,1.7,4.8,2.8,7
			c1.3,2.8,2.8,5.6,4.5,8.2c11.9,18.4,32.5,30.6,56,30.6c36.8,0,66.6-29.8,66.6-66.6C141.9,64.4,139.3,54.1,134.6,45z"/>
		<path class="st3" d="M128.9,35.8c0,0-18-27.2-53.7-27.2c-0.9,0-1.1,0.7,0,1.4C80.3,15.1,94.2,34.9,128.9,35.8z"/>
		<path class="st3" d="M58.6,10.7c0,0,7.6,19.7,27.8,28.9c21.1,9.6,39.9,11.3,50.1,9.4c0,0,4.4,9.6,4.9,17.6c0,0-17-10.3-36.9-11.1
			c-20-0.8-53.4-19.9-51.7-42.9C52.8,12.6,55.1,11.5,58.6,10.7z"/>
		<path class="st3" d="M38.2,19.9c0,0,9.4,28.3,45.2,43.6c15,6.4,30.4,14.2,58.1,9.4c0,0,1.7,12.9-6.3,31.6c0,0-9.7-19.5-32.2-25.1
			C77.2,73.1,49.9,66,33.7,23.1C33.7,23.1,36.4,21,38.2,19.9z"/>
		<path class="st3" d="M10.4,60c0,0,7.7-6.5,31.5,9.7c23.8,16.1,59.7,47.2,80.5,52.7c0,0,6.5-7,9-11.1c0,0-44.6-17.6-60.5-31.6
			c-15.9-14-46.6-22.2-51.3-41C19.6,38.7,12,48.5,10.4,60z"/>
		<path class="st3" d="M8.9,69.2c0,0,9-4.7,46.3,20.9c37.4,25.6,44.9,41.3,54.4,42.3c0,0-4.5,3.2-10.8,5.2c0,0-43.5-47.4-89.5-52.6
			C9.3,85,7.8,75.7,8.9,69.2z"/>
		<path class="st3" d="M13.8,100.9c0,0,2.7,6.6,5.9,11.1c0,0,31.3,0.8,49.5,29.9c0,0,8.6,0.6,15.1-0.6
			C84.3,141.3,61.6,105.3,13.8,100.9z"/>
		<path class="st4" d="M38,32.4c2.2-1.6,4.4-3.1,6.6-4.7c4.9-3.5,10.5-7.1,16.4-6.4c2.6,0.3,5.5,1.9,5.9,4.5c0.3,1.5-0.3,3-1.1,4.4
			c-2.4,4.2-6.3,7.6-10.9,9.2c-1.5,0.5-3.1,0.9-4.6,1.6c-1.9,0.9-3.4,2.2-5.1,3.4c-3.7,2.6-13.5,9.2-17,3.2
			C24.8,41.6,34,35.2,38,32.4z"/>
		<path class="st5" d="M134.6,45c-1.6-3.2-3.6-6.3-5.7-9.2c-1.8-2.5-3.8-4.8-5.9-7c1.2,1.9,2.3,3.8,3.4,5.8
			c4.6,9.1,7.3,19.4,7.3,30.3c0,36.8-29.8,66.6-66.6,66.6c-18.8,0-35.7-7.8-47.8-20.2c11.9,18.4,32.5,30.6,56,30.6
			c36.8,0,66.6-29.8,66.6-66.6C141.9,64.4,139.3,54.1,134.6,45z"/>
	</g>
</g>
</svg>
